<svg width="1008" height="77" viewBox="0 0 1008 77" fill="none" xmlns="http://www.w3.org/2000/svg">
<path class="v" d="M82.1476 0.0791016L53.0179 56.0651L23.8986 0.0791016H0.751953L39.6879 74.9131H66.3583L105.294 0.0791016H82.1476Z" fill="#213438"/>
<path class="a"  d="M114.863 74.9129L143.983 18.9269L173.112 74.9129H196.259L157.323 0.0788574H130.653L91.7168 74.9129H114.863Z" fill="#213438"/>
<path class="n"  d="M278.049 47.2085L230.216 0.078125H204.031V74.9948H227.188V25.3535L278.049 74.9948H301.206V0.078125H278.049V47.2085Z" fill="#213438"/>
<path class="d"  d="M367.367 0.0791016H317.715V75.0061H367.46C411.263 75.0061 420.232 54.6598 420.232 38.5501V35.5328C420.232 18.7204 410.767 0.0894349 367.367 0.0894349V0.0791016ZM395.659 37.6408C395.659 45.2978 392.136 56.9744 365.548 56.9744H341.182V17.8008H365.548C392.539 17.8008 395.659 29.3844 395.659 37.0311V37.6304V37.6408Z" fill="#213438"/>
<path class="s"  d="M484.533 27.8651L472.3 27.6652C457.425 27.3754 455.466 24.5469 455.466 21.4286C455.466 18.3102 456.742 15.1919 474.359 15.1919H475.925C495.008 15.1919 496.475 21.1387 496.967 23.8573H520.65V22.8878C520.65 11.9836 512.816 0 478.366 0H471.617C438.432 0 431.974 11.294 431.974 22.1082V22.9877C431.974 34.2817 440.29 43.4468 467.509 44.2264L480.033 44.5163C496.866 45.006 499.116 47.6346 499.116 51.8224C499.116 55.7203 496.967 59.5183 477.783 59.5183H476.417C457.626 59.5183 455.085 52.412 454.783 48.0244H431V49.0938C431 58.6387 435.409 75 473.575 75H480.324C516.934 75 523 62.7265 523 50.7429V49.3837C523 34.9713 511.942 28.3449 484.533 27.8551V27.8651Z" fill="#213438"/>
<path class="t"  d="M532.008 17.8003H564.237V74.9953H587.901V17.8003H620.223V0.0786133H532.008V17.8003Z" fill="#213438"/>
<path class="r"  d="M727.066 54.3491C727.066 44.6771 720.525 39.3451 712.868 37.1338C717.808 35.5218 726.767 31.4918 726.767 20.7141V19.5051C726.767 8.72745 719.213 0.0681152 694.237 0.0681152H633.818V74.9951H657.285V48.4074H687.903C699.487 48.4074 703.506 52.4374 703.506 61.6031V70.2624C703.506 72.9801 703.909 74.0858 704.612 74.9951H728.482V74.4888C727.779 73.2798 727.077 71.3681 727.077 65.3231V54.3491H727.066ZM702.287 24.4444C702.287 28.5778 699.569 31.7914 692.822 31.7914H657.275V17.0871H692.822C699.673 17.0871 702.287 20.4144 702.287 24.3411V24.4444Z" fill="#213438"/>
<path class="o"  d="M795.14 0H790.959C745.159 0 740 22.8908 740 35.8457V38.7645C740 51.5294 745.159 75 790.959 75H795.14C840.751 75 846 51.5194 846 38.7645V35.8457C846 22.8908 840.652 0 795.14 0ZM822.271 37.8948C822.271 46.2715 817.312 57.3771 793.005 57.3771C768.698 57.3771 763.739 45.9816 763.739 37.6949V36.5254C763.739 28.2487 768.119 17.533 793.005 17.533C817.891 17.533 822.271 28.2487 822.271 36.5254V37.8848V37.8948Z" fill="#213438"/>
<path class="m"  d="M920.812 46.7024L894.937 0.0783691H861.602V74.995H884.159V23.132L913.671 74.995H926.257L955.759 23.132V74.995H978.926V0.0783691H946.8L920.812 46.7024Z" fill="#213438"/>
<path class="tm"  d="M1005.49 0.0786133L1003.82 4.45995H1003.65L1001.88 0.0786133H994.561V1.25661H996.483V5.78261H997.743V1.25661H999.655V5.78261H1000.92V1.18428H1001.07L1002.86 5.78261H1004.5L1006.3 1.18428H1006.46V5.78261H1007.73V0.0786133H1005.49Z" fill="#213438"/>
</svg>
