<svg width="1008" height="141" viewBox="0 0 1008 141" fill="none" xmlns="http://www.w3.org/2000/svg">

<g class="logo-drop">
<path class="logo-drop-low" d="M143.956 117.367C126.999 117.367 113.245 103.624 113.245 86.6667H90.7598C90.7598 116.044 114.578 139.863 143.956 139.863C173.333 139.863 197.152 116.044 197.152 86.6667H174.666C174.666 103.624 160.913 117.367 143.956 117.367Z" fill="white"/>
<path class="logo-drop-high" d="M114.863 76.9128L143.983 20.9269L173.112 76.9128H196.259L157.323 2.07886H130.653L91.7168 76.9128H114.863Z" fill="#213438"/>
</g>

<g class="logo-text">
<path d="M278.049 49.2085L230.216 2.07812H204.031V76.9948H227.188V27.3535L278.049 76.9948H301.206V2.07812H278.049V49.2085Z" fill="#213438"/>
<path d="M367.367 2.0791H317.715V77.0061H367.46C411.263 77.0061 420.232 56.6598 420.232 40.5501V37.5328C420.232 20.7204 410.767 2.08943 367.367 2.08943V2.0791ZM395.659 39.6408C395.659 47.2978 392.136 58.9744 365.548 58.9744H341.182V19.8008H365.548C392.539 19.8008 395.659 31.3844 395.659 39.0311V39.6304V39.6408Z" fill="#213438"/>
<path d="M484.577 29.5654L471.991 29.3588C456.687 29.0591 454.672 26.1348 454.672 22.9108C454.672 19.6868 455.984 16.4628 474.109 16.4628H475.721C495.354 16.4628 496.863 22.6111 497.369 25.4218H521.735V24.4194C521.735 13.1458 513.675 0.756104 478.232 0.756104H471.288C437.147 0.756104 430.502 12.4328 430.502 23.6134V24.5228C430.502 36.1994 439.058 45.6751 467.062 46.4811L479.947 46.7808C497.266 47.2871 499.581 50.0048 499.581 54.3344C499.581 58.3644 497.369 62.2911 477.633 62.2911H476.227C456.894 62.2911 454.279 54.9441 453.969 50.4078H429.5V51.5134C429.5 61.3818 434.036 78.2974 473.303 78.2974H480.247C517.912 78.2974 524.153 65.6081 524.153 53.2184V51.8131C524.153 36.9124 512.776 30.0614 484.577 29.5551V29.5654Z" fill="#213438"/>
<path d="M532.008 19.8003H564.237V76.9953H587.901V19.8003H620.223V2.07861H532.008V19.8003Z" fill="#213438"/>
<path d="M727.066 56.3491C727.066 46.6771 720.525 41.3451 712.868 39.1338C717.808 37.5218 726.767 33.4918 726.767 22.7141V21.5051C726.767 10.7274 719.213 2.06812 694.237 2.06812H633.818V76.9951H657.285V50.4074H687.903C699.487 50.4074 703.506 54.4374 703.506 63.6031V72.2624C703.506 74.9801 703.909 76.0858 704.612 76.9951H728.482V76.4888C727.779 75.2798 727.077 73.3681 727.077 67.3231V56.3491H727.066ZM702.287 26.4444C702.287 30.5778 699.569 33.7914 692.822 33.7914H657.275V19.0871H692.822C699.673 19.0871 702.287 22.4144 702.287 26.3411V26.4444Z" fill="#213438"/>
<path d="M795.446 0.766357H791.116C743.686 0.766357 738.344 24.4297 738.344 37.8217V40.839C738.344 54.0347 743.686 78.2973 791.116 78.2973H795.446C842.679 78.2973 848.115 54.0243 848.115 40.839V37.8217C848.115 24.4297 842.576 0.766357 795.446 0.766357ZM823.542 39.94C823.542 48.5993 818.406 60.0797 793.234 60.0797C768.062 60.0797 762.927 48.2997 762.927 39.7334V38.5244C762.927 29.9684 767.463 18.891 793.234 18.891C819.006 18.891 823.542 29.9684 823.542 38.5244V39.9297V39.94Z" fill="#213438"/>
<path d="M920.812 48.7024L894.937 2.07837H861.602V76.995H884.159V25.132L913.671 76.995H926.257L955.759 25.132V76.995H978.926V2.07837H946.8L920.812 48.7024Z" fill="#213438"/>
<path d="M82.1476 2.0791L53.0179 58.0651L23.8986 2.0791H0.751953L39.6879 76.9131H66.3583L105.294 2.0791H82.1476Z" fill="#213438"/>
</g>
</svg>
